<svg width="66" height="98" viewBox="0 0 66 98" fill="none" xmlns="http://www.w3.org/2000/svg">
<g clip-path="url(#clip0_95_71)">
<path d="M35.6261 76.1239V95.3522C35.6261 96.8117 34.4475 98 33 98C31.5525 98 30.3739 96.8117 30.3739 95.3522V76.1239C22.3375 75.4779 15.092 71.897 9.69751 66.4578C3.70973 60.4286 0 52.1104 0 42.9627C0 41.5033 1.17857 40.3149 2.62608 40.3149C4.07359 40.3149 5.25216 41.5033 5.25216 42.9627C5.25216 50.6509 8.37656 57.6452 13.4072 62.7174C18.4379 67.7897 25.3749 70.9399 33 70.9399C40.6251 70.9399 47.5621 67.7897 52.5928 62.7174C57.6234 57.6452 60.7478 50.6509 60.7478 42.9627C60.7478 41.5033 61.9264 40.3149 63.3739 40.3149C64.8214 40.3149 66 41.5033 66 42.9627C66 52.1183 62.2903 60.4365 56.3104 66.4658C50.908 71.9049 43.6625 75.4779 35.6261 76.1239ZM33.174 0C38.2205 0 42.8082 2.08154 46.1304 5.43115C49.4525 8.78076 51.517 13.4064 51.517 18.4946V42.4204C51.517 47.5086 49.4525 52.1343 46.1304 55.4839C42.8082 58.8335 38.2205 60.915 33.174 60.915C28.1275 60.915 23.5398 58.8335 20.2176 55.4839C16.8955 52.1343 14.831 47.5086 14.831 42.4204V18.4946C14.831 13.4064 16.8955 8.78076 20.2176 5.43115C23.5398 2.08154 28.1275 0 33.174 0ZM42.4127 9.17953C40.0398 6.78695 36.7651 5.30355 33.174 5.30355C29.575 5.30355 26.3082 6.78695 23.9353 9.17953C21.5623 11.5721 20.0911 14.8739 20.0911 18.4946V42.4204C20.0911 46.0492 21.5623 49.3429 23.9353 51.7355C26.3082 54.1281 29.5829 55.6115 33.174 55.6115C36.773 55.6115 40.0398 54.1281 42.4127 51.7355C44.7857 49.3429 46.2569 46.0412 46.2569 42.4204V18.4946C46.2649 14.8659 44.7857 11.5721 42.4127 9.17953Z" fill="white"/>
</g>
<defs>
<clipPath id="clip0_95_71">
<rect width="66" height="98" fill="white"/>
</clipPath>
</defs>
</svg>
