<svg width="116" height="135" viewBox="0 0 116 135" fill="none" xmlns="http://www.w3.org/2000/svg">
<g clip-path="url(#clip0_95_69)">
<path fill-rule="evenodd" clip-rule="evenodd" d="M97.826 85.7373C100.875 85.21 103.758 85.2978 106.284 85.8801V27.2681L43.4597 45.0769V113.137C43.493 113.511 43.5153 113.895 43.5153 114.269V114.28C43.5153 123.442 33.7772 132.539 21.7576 134.594C9.74921 136.637 0 130.869 0 121.696C0 112.533 9.74921 103.436 21.7576 101.393C26.2761 100.624 30.483 100.964 33.9664 102.173V18.3911H34.4895L115.789 0V94.3945C115.933 95.0867 116.011 95.7898 116.011 96.4929C116.011 96.4929 116.011 96.4929 116.011 96.5039C116.011 104.161 107.865 111.764 97.8371 113.467C87.7985 115.181 79.663 110.358 79.663 102.7C79.6519 95.0427 87.7874 87.4402 97.826 85.7373Z" fill="white"/>
</g>
<defs>
<clipPath id="clip0_95_69">
<rect width="116" height="135" fill="white"/>
</clipPath>
</defs>
</svg>
