<svg width="365" height="260" viewBox="0 0 365 260" fill="none" xmlns="http://www.w3.org/2000/svg">
<path d="M146.098 67.3101C146.098 61.2912 149.504 56.4167 153.71 56.4167C157.916 56.4167 161.322 61.2912 161.322 67.3101V192.775C161.322 198.794 157.916 203.668 153.71 203.668C149.504 203.668 146.098 198.794 146.098 192.775V67.3101ZM219.495 67.3101C219.495 61.2912 216.088 56.4167 211.883 56.4167C207.677 56.4167 204.27 61.2912 204.27 67.3101V192.775C204.27 198.794 207.677 203.668 211.883 203.668C216.088 203.668 219.495 198.794 219.495 192.775V67.3101ZM364.778 40.0978C364.778 34.0789 361.401 29.2468 357.284 29.2468C353.137 29.2468 349.79 34.0789 349.79 40.0978V219.945C349.79 225.963 353.167 230.796 357.284 230.796C361.431 230.796 364.778 225.963 364.778 219.945V40.0978ZM335.84 10.8934C335.84 4.87447 332.433 0 328.227 0C324.022 0 320.615 4.87447 320.615 10.8934V249.107C320.615 255.126 324.022 260 328.227 260C332.433 260 335.84 255.126 335.84 249.107V10.8934ZM248.581 91.8096C248.581 85.7907 245.175 80.9162 240.969 80.9162C236.763 80.9162 233.357 85.7907 233.357 91.8096V168.19C233.357 174.209 236.763 179.084 240.969 179.084C245.175 179.084 248.581 174.209 248.581 168.19V91.8096ZM277.638 67.3101C277.638 61.2912 274.231 56.4167 270.025 56.4167C265.819 56.4167 262.413 61.2912 262.413 67.3101V192.775C262.413 198.794 265.819 203.668 270.025 203.668C274.231 203.668 277.638 198.794 277.638 192.775V67.3101ZM306.635 40.0978C306.635 34.0789 303.258 29.2468 299.141 29.2468C294.995 29.2468 291.648 34.0789 291.648 40.0978V219.945C291.648 225.963 295.024 230.796 299.141 230.796C303.288 230.796 306.635 225.963 306.635 219.945V40.0978ZM0.814819 40.0978C0.814819 34.1213 4.19143 29.2468 8.30852 29.2468C12.4552 29.2468 15.8022 34.0789 15.8022 40.0978V219.945C15.8022 225.963 12.4256 230.796 8.30852 230.796C4.16181 230.796 0.814819 225.921 0.814819 219.945V40.0978ZM29.7826 10.8934C29.7826 4.87447 33.1888 0 37.3948 0C41.6007 0 45.0069 4.87447 45.0069 10.8934V249.107C45.0069 255.126 41.6007 260 37.3948 260C33.1888 260 29.7826 255.126 29.7826 249.107V10.8934ZM117.012 91.8096C117.012 85.7907 120.418 80.9162 124.624 80.9162C128.83 80.9162 132.236 85.7907 132.236 91.8096V168.19C132.236 174.209 128.83 179.084 124.624 179.084C120.418 179.084 117.012 174.209 117.012 168.19V91.8096ZM87.955 67.3101C87.955 61.2912 91.3613 56.4167 95.5672 56.4167C99.7732 56.4167 103.179 61.2912 103.179 67.3101V192.775C103.179 198.794 99.7732 203.668 95.5672 203.668C91.3613 203.668 87.955 198.794 87.955 192.775V67.3101ZM58.9577 40.0978C58.9577 34.0789 62.3343 29.2468 66.4514 29.2468C70.5981 29.2468 73.9451 34.0789 73.9451 40.0978V219.945C73.9451 225.963 70.5685 230.796 66.4514 230.796C62.3047 230.796 58.9577 225.963 58.9577 219.945V40.0978ZM175.273 40.0978C175.273 34.0789 178.65 29.2468 182.767 29.2468C186.913 29.2468 190.26 34.0789 190.26 40.0978V219.945C190.26 225.963 186.884 230.796 182.767 230.796C178.62 230.796 175.273 225.963 175.273 219.945V40.0978Z" fill="white"/>
</svg>
